<?xml version="1.0" encoding="iso-8859-1"?>
<!-- Uploaded to: SVG Repo, www.svgrepo.com, Generator: SVG Repo Mixer Tools -->
<!-- <svg fill="#223F3D" height="800px" width="800px" version="1.1" id="Capa_1" xmlns="http://www.w3.org/2000/svg" xmlns:xlink="http://www.w3.org/1999/xlink" 
	 viewBox="0 0 496.758 496.758" xml:space="preserve"> -->
<!DOCTYPE svg PUBLIC "-//W3C//DTD SVG 1.1//EN" "http://www.w3.org/Graphics/SVG/1.1/DTD/svg11.dtd">
<svg fill="#223F3D" style="background-color: #fff" height="800px" width="800px" version="1.1" id="Capa_1" xmlns="http://www.w3.org/2000/svg" xmlns:xlink="http://www.w3.org/1999/xlink" 
	 viewBox="30 0 250 220" xml:space="preserve">
<g>
	<path d="M457.728,350.267c0.016-6.321-2.517-12.253-7.123-16.713c-4.548-4.387-10.578-6.814-16.98-6.831c-0.032,0-0.057,0-0.089,0
		c-4.492,0-8.83,1.214-12.609,3.48c-4.063-2.315-8.555-3.529-13.208-3.553c-0.024,0-0.049,0-0.073,0
		c-7.502,0-14.544,3.035-19.829,8.555c-5.229,5.455-8.126,12.69-8.142,20.387c-0.016,5.609,1.578,10.959,4.573,15.596
		l-19.902,13.799c-2.816,1.958-3.521,5.827-1.562,8.652c1.958,2.816,5.827,3.545,8.651,1.562l25.479-17.668
		c1.546-1.076,2.525-2.792,2.654-4.678c0.13-1.878-0.599-3.715-1.983-4.994c-3.545-3.27-5.487-7.616-5.479-12.237
		c0.008-4.484,1.675-8.684,4.678-11.816c2.93-3.051,6.782-4.727,10.845-4.727c0.016,0,0.033,0,0.04,0
		c4.265,0.024,7.495,1.942,9.453,3.553c2.404,1.975,5.9,1.877,8.183-0.251c2.242-2.08,5.164-3.229,8.239-3.229
		c3.893,0.243,6.192,1.189,8.417,3.343c2.161,2.08,3.343,4.832,3.335,7.737c-0.008,4.686-3.351,8.813-8.312,10.278
		c-1.813,0.534-3.286,1.87-3.998,3.61c-0.712,1.748-0.591,3.731,0.324,5.382c1.481,2.646,2.258,5.657,2.258,8.668
		c-0.033,8.943-6.386,16.195-14.18,16.195c-0.008,0-0.024,0-0.032,0c-5.326-0.008-10.141-3.472-12.569-9.024
		c-0.858-1.967-2.663-3.351-4.783-3.666c-2.064-0.259-4.249,0.485-5.642,2.112l-17.336,20.266c-2.226,2.606-1.926,6.531,0.688,8.765
		c1.173,0.996,2.606,1.489,4.039,1.489c1.748,0,3.497-0.736,4.727-2.177l11.962-13.985c4.913,5.406,11.703,8.635,18.882,8.652
		c0.024,0,0.048,0,0.073,0c14.625,0,26.555-12.804,26.603-28.602c0-2.906-0.421-5.795-1.238-8.563
		C453.495,365.418,457.712,358.247,457.728,350.267z"/>
	<path d="M197.727,398.342c1.597-8.906,4.958-17.188,9.761-24.54l-2.31-3.318l-33.255-47.776c-0.636-0.392-1.303-0.693-1.924-1.123
		c-9.187-6.344-14.846-15.771-16.896-25.917l-1.827-2.625c-0.859-0.151-1.716-0.289-2.579-0.497L83.96,276.858l-15.897,78.759
		c-0.737,3.65,0.201,7.438,2.558,10.318c2.355,2.883,5.884,4.548,9.607,4.548H98.21v100.61c0,13.889,11.267,25.153,25.155,25.153
		c13.896,0,25.153-11.258,25.153-25.153v-100.61h19.877v100.61c0,13.896,11.258,25.153,25.155,25.153
		c13.896,0,25.154-11.258,25.154-25.153v-8.622l-10.133-14.559C198.455,433.378,194.603,415.775,197.727,398.342z"/>
	<path d="M225.813,313.095l20.363,29.255l-9.082-44.989l-9.454,13.685C227.106,311.82,226.389,312.37,225.813,313.095z"/>
	<path d="M187.764,222.966l2.922-4.225l-12.82-25.583h-35.053l-0.162,0.458l10.204,14.66l15.363,3.723
		C175.899,213.86,182.56,217.753,187.764,222.966z"/>
	<path d="M158.457,109.495c30.239,0,54.754-24.506,54.754-54.743C213.211,24.515,188.696,0,158.457,0
		c-30.236,0-54.751,24.515-54.751,54.752C103.705,84.989,128.22,109.495,158.457,109.495z"/>
	<path d="M311.255,392.323l-81.637,56.811l30.024,43.14c1.585,2.274,4.006,3.827,6.733,4.313c0.615,0.115,1.238,0.171,1.853,0.171
		c2.121,0,4.2-0.649,5.966-1.879l64.471-44.877c4.736-3.302,5.909-9.817,2.605-14.552L311.255,392.323z"/>
	<path d="M84.195,131.385L61.668,99.023c-3.925-5.633-11.663-7.009-17.304-3.108c-5.641,3.925-7.025,11.671-3.108,17.304
		l28.056,40.308C72.934,145.151,77.944,137.645,84.195,131.385z"/>
	<path d="M301.421,378.963c-9.716-12.008-23.889-18.661-38.478-18.661c-5.795,0-11.591,1.143-17.177,3.214l-9.699-13.935
		l-19.487-27.995c-6.898,4.65-14.87,7.346-23.069,7.346c-0.74,0.001-1.481-0.124-2.223-0.163l24.322,34.944l9.78,14.049
		c-13.649,15.902-15.98,39-4.95,57.557L301.421,378.963z"/>
	<path d="M152.606,276.439c8.069,1.991,16.146-0.259,21.99-5.253l-1.498,2.177c-7.81,11.298-4.977,26.781,6.321,34.583
		c4.314,2.986,9.234,4.411,14.107,4.411c7.891,0,15.652-3.747,20.476-10.732l45.169-65.379c5.164-7.47,5.843-17.149,1.781-25.268
		l-26.943-53.772c-9.364-18.72-28.197-30.351-49.135-30.351h-50.106c-23.269,0-44.093,14.747-51.831,36.704l-22.014,62.497
		c-2.331,6.637-1.748,13.945,1.603,20.12c3.351,6.184,9.162,10.651,16.001,12.311L152.606,276.439z M129.847,180.07
		c0.729-2.088,2.712-3.488,4.921-3.488h50.106c1.991,0,3.78,1.101,4.67,2.89l20.355,40.621l-28.044,40.581
		c0.299-0.826,0.55-1.675,0.769-2.549c3.229-13.338-4.97-26.781-18.316-30.019l-47.338-11.468L129.847,180.07z"/>
</g>
</svg>