<?xml version="1.0" encoding="iso-8859-1"?>
<!-- Uploaded to: SVG Repo, www.svgrepo.com, Generator: SVG Repo Mixer Tools -->
<!DOCTYPE svg PUBLIC "-//W3C//DTD SVG 1.1//EN" "http://www.w3.org/Graphics/SVG/1.1/DTD/svg11.dtd">
<svg fill="#5B6F60" height="800px" width="800px" version="1.1" id="Capa_1" xmlns="http://www.w3.org/2000/svg" xmlns:xlink="http://www.w3.org/1999/xlink" 
	 viewBox="0 0 297 297" xml:space="preserve">
<path d="M292.721,3.773c-5.032-5.031-13.189-5.031-18.22,0l-95.196,95.195c-10.464-3.07-26.013-1.62-45.011,18.172
	c-5.856-5.412-13.888-8.5-22.238-8.5c-6.975,0-13.771,2.184-19.141,6.147l-81.072,59.869c-6.573,4.855-10.68,12.134-11.266,19.971
	c-0.586,7.837,2.393,15.646,8.17,21.424l72.684,72.684c5.33,5.329,12.267,8.265,19.531,8.265c8.58,0,16.568-4.076,21.914-11.184
	l60.469-80.411c9.285-12.346,8.179-30.465-2.409-41.64c6.401-5.283,12.697-11.816,16.525-20.533
	c4.206-9.581,4.507-19.29,1.288-27.27l93.972-93.97C297.753,16.962,297.753,8.805,292.721,3.773z M165.045,125.303
	c5.952-3.097,7.903-2.021,9.372-0.553c1.375,1.375,1.438,4.375-0.548,8.124c-2.555,4.823-6.65,8.975-11.245,12.552l-10.071-10.069
	C156.92,130.788,161.271,127.266,165.045,125.303z M112.056,134.407c1.917,0,3.783,0.675,4.868,1.759l45.227,45.229
	c2.02,2.02,2.317,6.241,0.601,8.524l-5.957,7.921l-56.483-56.483l7.909-5.841C109.176,134.811,110.574,134.407,112.056,134.407z
	 M141.155,218.639l-38.871,51.69c-0.255,0.338-0.764,0.904-1.321,0.904c-0.382,0-0.848-0.255-1.312-0.718l-11.127-11.127
	l13.427-13.428c5.031-5.031,5.031-13.188,0-18.219c-5.03-5.031-13.189-5.031-18.22,0l-13.427,13.427l-43.337-43.337
	c-0.468-0.467-0.722-0.934-0.695-1.282c0.026-0.348,0.347-0.773,0.878-1.164l52.308-38.628L141.155,218.639z"/>
</svg>