<svg preserveAspectRatio="none" data-bbox="28.375 20 143.248 160" viewBox="28.375 20 143.248 160" height="200" width="200" xmlns="http://www.w3.org/2000/svg" data-type="color" role="presentation" aria-hidden="true" aria-label=""><defs><style>#comp-m31hqqld6 svg [data-color="1"] {fill: #35650B;}</style></defs>
    <g>
        <path d="M77.774 140.143a106.093 106.093 0 0 1-12.195-20.54 102.478 102.478 0 0 1-6.019-21.449 105.22 105.22 0 0 1-.758-16.161c12.693 22.09 31.084 40.911 52.863 54.203 7.713 4.707 15.913 8.523 24.372 11.672l1.402-2.734a1.47 1.47 0 0 1-.179-.106l.092-.758c-.02.109-.021.162-.021.17-.002-.129-.007-.329.148-.607l.636-.018.944-1.841-.137-.271-.046-.607.12-.369c.065-.077.123-.137.183-.19.234-.205.51-.324.795-.347l5.565-10.851c-.149-.295-.233-.698-.135-1.247l.193-.316.47-.358.36-.102c.047.005.093.012.139.021l2.476-4.827-.024-.056c-1.707-.536-3.38-1.166-5.055-1.789-9.457-3.866-18.41-8.838-26.734-14.76a139.699 139.699 0 0 1-23.753-22.978 139.209 139.209 0 0 1-5.262-7.368 159.544 159.544 0 0 0 12.317 4.684c7.58 2.522 20.291 5.068 28.246 5.803 6.498.601 12.999.774 19.524.032a98.998 98.998 0 0 0 8.009-1.236l-.123-.002-.542-1.007.379-.638c.214-.002.401-.12.571-.238.441-.309.856-.417 1.306-.2l.216.565c-.181.407-.405.631-.623.848-.151.15-.296.299-.449.524a83.378 83.378 0 0 0 11.883-3.358l.066-.583c.368-.461.869-.728 1.409-.751.464-.019.839.133 1.136.329l.084-.033-11.384-25.908c-.381.141-.763.275-1.146.409.449.419.725 1.021.739 1.639.013.546-.178 1.038-.539 1.387l-.506.267-.451.092-.564-.046c-1.256-.477-1.412-1.405-1.421-1.782a1.818 1.818 0 0 1 .126-.705c-1.275.386-2.56.735-3.856 1.044a2.09 2.09 0 0 1-.732.751 2.07 2.07 0 0 1-.457.203 1.3 1.3 0 0 1 .667.384c.347.363.488.866.357 1.28-.125.409-.472.709-.928.8l-.253-.013-.397-.125-.215-.134-.267-.279-.136-.426.057-.389-.075-.021-.021-.293.089-.328c.112-.159.26-.279.425-.361a2.511 2.511 0 0 1-.31-.027l-.588-.314-.081-.088a67.68 67.68 0 0 1-1.271.236c-6.415.771-12.885.768-19.316.162-8.962-1.193-17.739-3.482-26.218-6.611a144.277 144.277 0 0 1-21.93-11.13c-5.144-3.184-9.725-7.2-13.611-11.836L60.592 20l-15.58 6.142-14.097 8.54s-5.492 31.238-.326 58.471c1.52 20.953 8.486 41.563 20.698 58.731 7.08 9.953 15.352 18.966 25.197 26.23.727.758 1.528 1.38 2.394 1.886l17.476-22.204-.003-.02c-6.912-5.085-13.124-11.019-18.577-17.633zm60.826-1.403c-.154.067-.289.062-.372.06l-.633-.234 1.201-.482-.196.656zm.534-14.251.21-.404.195-.204c.391-.228.828-.248 1.197-.053.365.191.603.583.638 1.051.035.469-.144.892-.478 1.135-.332.246-.767.292-1.19.123l-.224-.175-.267-.371-.095-.26-.042-.567.056-.275zm-.266 9.882.456-.599.37-.193c.319-.019.549.089.636.13l.6.467.187.368c.017.295-.079.509-.125.611l-.487.618-.373.184a1.26 1.26 0 0 1-.608-.136l-.593-.46-.189-.363a1.256 1.256 0 0 1 .126-.627zm-1.21-8.711.364.415c.038-.039.055-.088.14-.102.242.195.078.366.233.554-.013.017-.032.001-.046.012l.353.403a.67.67 0 0 1-.653.131.882.882 0 0 1-.393-.265c-.324-.369-.323-.863.002-1.148zm-1.258 7.675c.382.331.335 1.094-.066 1.453a.947.947 0 0 1-.828.217l-.332-.294a1.018 1.018 0 0 1-.051-.251c-.03-.401.223-.606.345-.707l.391-.585a.722.722 0 0 1 .541.167zm-1.847-15.154.681-.155a.171.171 0 0 0-.062-.035l.293-.061c.44.319.18.82.095.982-.021.042-.043.08-.058.119l-.529.251c-.231-.071-.392-.199-.475-.381-.132-.285-.011-.567.055-.72zm-1.209 6.636c.479-.221 1.203.218 1.403.61l-.261.612c-.366.111-.642-.043-.807-.134a.517.517 0 0 0-.13-.063l-.552-.39c-.018-.288.11-.526.347-.635zm-6.214 6.532c.115-.11.352-.295.65-.289a.64.64 0 0 1 .447.195l-.351.335c.041.035.093.037.114.12-.232.335-.454.257-.683.392-.011-.009.002-.025-.004-.034l-.329.315c-.259-.271-.196-.697.156-1.034zm-3.616-.594c.41-.041.882.198 1.073.551l.033.333a.793.793 0 0 1-.693.573c-.409.042-.878-.197-1.071-.543l-.037-.334a.795.795 0 0 1 .695-.58zm-5.656-2.833c.112-.31.424-.399.528-.429.068-.02.141-.035.218-.051.053-.012.109-.024.158-.038l.643.465c-.048.249-.163.831-.648.97-.137.039-.358.053-.624-.104l-.143-.13c-.164-.243-.209-.473-.132-.683zm-.611 1.356c.188-.165.44-.192.661-.215.07-.007.174-.017.207-.031l.661.298c.025.172.037.233.118.315l-.135.698c-.379.168-.692-.061-.863-.184a1.078 1.078 0 0 0-.124-.085c.037.017.111.004.143-.022l-.811-.011c-.178-.437.064-.694.143-.763zm-2.994-16.946c.109-.295.393-.41.548-.471l.591.371a.164.164 0 0 0-.02-.068l.251.164c.087.536-.452.708-.626.763-.045.015-.087.027-.125.043l-.552-.196c-.113-.214-.137-.419-.067-.606zm-8.957-14.438a.826.826 0 0 1 .587-.42c.261-.045.528.039.751.236l.126.454c-.031.095-.064.17-.102.238-.132.236-.308.347-.425.422-.048.031-.084.054-.106.076l-.554.074a.796.796 0 0 1-.277-1.08zm-.567 19.895c.126-.166.602-.663 1.452-.058l.096.611c-.007-.004-.021-.097-.066-.138l.05.559a.653.653 0 0 1-.66.278c-.472-.081-.879-.657-.942-.874l.07-.378zM93.638 90.747l.317-.219c.206-.029.895-.045 1.069.984l-.363.501c-.002-.008.053-.084.05-.144l-.359.431a.655.655 0 0 1-.664-.269c-.276-.391-.158-1.086-.05-1.284zm68.113-10.487c-.234-.098-.781-.329-.818-.832-.01-.142.021-.361.228-.59l.156-.113c.272-.112.506-.108.696.01.281.172.305.496.313.604.005.071.006.145.006.223.001.054.002.112.006.162l-.587.536zm3.382-7.198c.28-.314.586-.431.717-.48l.71-.171.719.103.333.185.483.613.167.589-.09.773-.28.503-.529.456-.521.198-.694.011c-.747-.26-1.007-.823-1.093-1.007l-.087-.303-.085-.666.25-.804zm-4.558-14.723c.176-.186.432-.276.76-.266l.34.684c-.043-.102-.072-.147-.076-.154.073.107.186.271.21.588l-.64.448c-.136-.078-.206-.107-.331-.094l-.471-.366-.014-.124c-.027-.368.106-.592.222-.716zm-2.716 7.878.626-.617.613-.217.835.07.499.278.511.741.097.653.133.051c.45.342 1.073.813 1.304 1.729l-.016.558-.138.433-.309.465a2.017 2.017 0 0 1-2.155.301c-.769-.339-1.281-1.078-1.3-1.881a1.83 1.83 0 0 1 .01-.223l-.35-.094c-.253-.198-1.028-.946-.36-2.247zm-6.125-3.072.07-.293.25-.623.615-.584c.399-.136.74-.087.867-.069l.18.04.539.175.344.273c.372.007.718.132.977.298l-.02.049.248.085.595.547c.282.629.222 1.531-.792 2.173l-.836.22-.642-.115-.563-.388-.225.044-.549-.087-.614-.343a1.822 1.822 0 0 1-.444-1.402zm-.858 11.756.306-.443.536-.394.177-.055c.439-.148 1.664-.562 2.706.527l.377.757.027.513-.169.616c-.432.652-1.093 1.063-1.811 1.131a2.132 2.132 0 0 1-1.738-.641 2.145 2.145 0 0 1-.586-1.367l.175-.644zM128.05 85.125a.5.5 0 0 0-.109.094l-.577.352c-.272-.098-.439-.311-.445-.571-.013-.528.678-1.018 1.117-1.045l.458.483c-.044.38-.294.572-.444.687zm13.653-4.468-.554.993-.612.485-.589.167-.774-.09-.831-.463-.394-.396-.222-.399-.127-.539c.016-.367.11-.706.278-1.008.607-1.088 2.002-1.403 3.244-.732l.494.607.174.591-.087.784zm-4.088-5.224c.191-.211.447-.236.696-.265.175-.02.373-.041.602-.122l.579.374.042.573-.338.456c-.537.118-.859-.059-1.094-.187a.84.84 0 0 0-.251-.11l-.236-.719zM147.243 67c.19-.345.471-.568.845-.675.081-.023.169-.042.266-.054l.359.089.485.342.096.152.02-.014c.155.157.407.416.484.891l-.004.189-.066.311-.075.178c-.238.355-.614.609-1.115.752l-.117.031-.374-.044-.511-.276-.238-.278c-.125-.35-.355-1.002-.055-1.594zm-3.549 11.475.285-.697.307-.283c.303-.102.554-.056.648-.039l.701.295.241.267.115.001.663.107.705.472c.221.359.248.702.258.831v.184l-.052.564-.191.396c.076.365.029.73-.075 1.019l-.052-.009-.029.26-.403.701c-.552.414-1.445.554-2.294-.294l-.399-.767-.03-.651.255-.635-.093-.21-.032-.485-.21-.088-.277-.301a1.255 1.255 0 0 1-.041-.638zm-2.748-17.02.318-.683.32-.268c.308-.087.556-.03.649-.009l.687.328.262.319c.08.285.032.514.009.624l-.344.708-.325.26a1.28 1.28 0 0 1-.623-.002l-.678-.322-.263-.314a1.253 1.253 0 0 1-.012-.641zm-2.206 10.487.295-.182c.578-.119.951.151 1.074.239l.517.644.093.414a1.28 1.28 0 0 1-.262.534l-.486.459-.333.134-.379.009-.364-.14-.443-.423-.158-.356-.014-.568.111-.329.349-.435zm-2.584-11.904.662-.526.428-.088c.956.237 1.048.947 1.053 1.159.011.44-.232.773-.312.883l-.177.152-.34.177-.223.056-.381.009-.33-.111-.435-.348-.188-.338-.023-.207c-.01-.432.197-.723.266-.818zm-2.808 1.126c.086-.134.273-.37.563-.434a.633.633 0 0 1 .48.085l-.262.409c.048.025.099.014.139.089-.147.38-.381.357-.572.542-.012-.006-.004-.025-.012-.032l-.245.383c-.315-.204-.354-.632-.091-1.042zm-1.376 13.835c.105.12.279.365.26.662a.636.636 0 0 1-.215.438l-.32-.365c-.037.039-.041.092-.125.109-.324-.247-.237-.465-.361-.7.009-.01.025.003.034-.002l-.3-.342c.284-.248.706-.166 1.027.2zm-2.263-1.325.343.237c.166.273.177.528.181.623l-.133.749-.238.337c-.253.153-.487.167-.599.175l-.774-.143-.337-.244a1.266 1.266 0 0 1-.163-.601l.13-.739.233-.337c.242-.149.467-.175.614-.182l.743.125zm-3.729-11.243a1.8 1.8 0 0 1 .15-.226l.317-.191.585-.1.176.04.004-.024c.221.002.582.007.972.289l.131.137.173.267.073.179c.082.42-.005.865-.259 1.32l-.061.104-.296.233-.557.165-.365-.029c-.335-.161-.959-.46-1.164-1.091a1.338 1.338 0 0 1 .121-1.073zm-.773 19.136.506-.273.554.122c.327.442.297.808.276 1.075-.01.109-.018.196.002.274l-.56.509c-.271-.089-.398-.312-.526-.527a2.501 2.501 0 0 0-.357-.499l.105-.681zm-2.886-9.469.312-.274c.444-.097.853.165.97.625.116.454-.086 1.017-.619 1.169l-.112.025-.463-.253c-.209-.469-.238-.892-.088-1.292zm-.192 5.056c.061-.037.127-.07.197-.106.048-.025.099-.052.142-.078l.742.282c.018.253.058.845-.374 1.105-.122.073-.332.144-.629.062l-.172-.088c-.222-.192-.325-.403-.305-.626.028-.328.306-.495.399-.551zm-2.662-18.034c.063-.034.13-.064.202-.097.049-.023.101-.047.146-.071l.728.317c.006.254.018.847-.425 1.086-.125.067-.338.128-.631.032l-.167-.096c-.213-.202-.306-.418-.275-.639.041-.327.327-.481.422-.532zm-4.862 3.87.668.205a.161.161 0 0 0-.037-.061l.285.093c.223.495-.253.801-.407.899-.04.026-.077.049-.11.074l-.584-.046c-.165-.176-.241-.368-.222-.567.029-.313.274-.497.407-.597zm-2.617-4.604c.172.012.331.051.491.092.11.028.221.058.339.067l.405.407c.036.656-.383.829-.509.865-.214.061-.452.016-.668-.124a1.182 1.182 0 0 1-.517-.813l.459-.494zm-2.873 18.568c.216.152.347.4.365.698l-.231.411a1.136 1.136 0 0 1-.838.096c-.056-.012-.098-.021-.129-.021l-.445-.339a.796.796 0 0 1 .566-.96.822.822 0 0 1 .712.115zm-1.401-17.779c.159-.004.459.019.675.224a.637.637 0 0 1 .198.445l-.485.012c.006.054.044.09.004.165-.397.091-.509-.116-.769-.171-.002-.014.018-.017.02-.027l-.455.011c-.008-.376.325-.648.812-.659zm-3.393 5.108c.123-.126.262-.269.386-.477l.685-.079.397.415.029.566c-.34.433-.7.501-.963.552a.848.848 0 0 0-.264.074l-.639-.404c.015-.284.196-.467.369-.647zm-3.489 3.961c.068-.11.171-.281.451-.432l.67.402c-.016.156-.014.232.049.341l-.142.579-.108.064c-.324.175-.583.145-.743.089-.242-.085-.428-.282-.553-.585l.485-.59c-.075.081-.105.126-.109.132zM88.683 48.099l.249-.294c.192-.082.853-.276 1.288.672l-.22.579c-.004-.007.03-.095.011-.152l-.234.51a.655.655 0 0 1-.711-.087c-.369-.307-.436-1.009-.383-1.228z" fill="#35650B" data-color="1"></path>
    </g>
</svg>